<svg version="1.1" viewBox="0 0 576 512" xmlns="http://www.w3.org/2000/svg">
<path d="m320 224h96c17.67 0 32-14.33 32-32s-14.33-32-32-32h-95.1c-17.67 0-32 14.33-32 32s13.4 32 31.1 32zm0 128h160c17.67 0 32-14.33 32-32s-14.33-32-32-32h-159.1c-17.67 0-32 14.33-32 32s13.4 32 31.1 32zm0-256h32c17.67 0 31.1-14.33 31.1-32s-14.33-32-31.1-32h-32c-17.67 0-32 14.33-32 32s14.3 32 32 32zm224 320h-223.1c-17.67 0-32 14.33-32 32s14.33 32 32 32h223.1c17.67 0 32-14.33 32-32s-14.3-32-32-32zm-351.6-85.3-32.4 35.4v-302.07c0-17.7-14.3-32.03-32-32.03s-32 14.33-32 32.03v302l-32.4-35.33c-6.312-6.883-14.94-10.38-23.61-10.38-7.719 0-15.47 2.781-21.61 8.414-13.03 11.95-13.9 32.22-1.969 45.27l87.1 96.09c12.12 13.26 35.06 13.26 47.19 0l87.1-96.09c11.94-13.05 11.06-33.31-1.969-45.27-11.232-11.934-31.432-11.034-43.432 1.966z" fill="#1d2228"/>
</svg>
